<?xml version="1.0" standalone="no"?>
<!DOCTYPE svg PUBLIC "-//W3C//DTD SVG 20010904//EN"
 "http://www.w3.org/TR/2001/REC-SVG-20010904/DTD/svg10.dtd">
<svg version="1.0" xmlns="http://www.w3.org/2000/svg"
 width="100.000000pt" height="100.000000pt" viewBox="0 0 100.000000 100.000000"
 preserveAspectRatio="xMidYMid meet">

<g transform="translate(0.000000,100.000000) scale(0.100000,-0.100000)"
fill="currentColor" stroke="none">
<path d="M765 920 c-33 -16 -92 -35 -132 -42 -65 -11 -74 -10 -91 5 -24 22
-46 22 -67 0 -15 -15 -25 -15 -89 -4 -39 6 -95 23 -125 37 -30 13 -56 23 -58
21 -7 -8 75 -58 123 -76 27 -10 69 -22 93 -26 74 -12 91 -41 75 -123 -5 -24
-14 -34 -40 -42 -42 -14 -100 -78 -109 -121 -4 -19 -22 -51 -41 -71 -58 -65
-58 -152 2 -218 42 -46 91 -65 150 -56 l44 6 0 -65 c0 -76 2 -75 -115 -50 -85
18 -175 61 -234 111 -55 47 -39 13 17 -38 50 -45 112 -81 182 -104 76 -26 244
-26 320 0 98 33 185 92 232 160 20 28 18 27 -26 -12 -63 -55 -153 -98 -241
-117 -117 -25 -115 -26 -115 50 l0 65 44 -6 c59 -9 108 10 150 56 60 66 60
153 2 218 -19 20 -37 52 -41 71 -9 43 -67 107 -109 121 -26 8 -35 18 -40 42
-17 86 -1 108 90 126 67 14 171 62 199 92 22 25 23 25 -50 -10z m-275 -299 c0
-13 -11 -23 -34 -31 -18 -6 -44 -22 -56 -35 -27 -29 -42 -32 -33 -7 10 28 46
63 78 78 40 18 45 17 45 -5z m83 5 c34 -14 70 -50 80 -78 9 -25 -6 -22 -33 7
-12 13 -38 29 -56 35 -23 8 -34 18 -34 31 0 23 2 23 43 5z m-83 -82 c0 -11 -5
-14 -16 -10 -9 3 -21 6 -27 7 -7 0 -3 4 8 9 29 13 35 12 35 -6z m83 5 c7 0 3
-4 -8 -9 -29 -13 -35 -12 -35 6 0 11 5 14 16 10 9 -3 21 -6 27 -7z m-103 -55
c0 -3 -9 -17 -20 -31 -11 -14 -20 -32 -20 -39 0 -20 -10 -17 -37 8 -25 23 -30
53 -10 61 17 8 87 8 87 1z m164 0 c22 -9 20 -34 -6 -61 -24 -26 -38 -29 -38
-9 0 7 -9 25 -20 39 -11 14 -20 28 -20 31 0 8 64 8 84 0z m-288 -102 c6 -37
54 -96 95 -118 39 -20 36 -34 -6 -34 -46 0 -94 21 -125 55 -19 21 -25 37 -25
75 0 38 5 54 25 75 l25 27 3 -24 c1 -12 5 -38 8 -56z m389 -21 c0 -39 -5 -55
-25 -76 -31 -34 -79 -55 -125 -55 -42 0 -45 14 -7 34 62 33 102 96 102 164 l0
37 28 -28 c22 -22 27 -36 27 -76z m-248 13 c-2 -3 -12 -2 -21 2 -21 8 -20 32
2 57 17 19 17 18 20 -18 2 -20 1 -39 -1 -41z m83 26 c0 -15 -18 -30 -36 -30
-2 0 -4 19 -4 42 0 40 0 41 20 23 11 -10 20 -26 20 -35z m-150 -64 c0 -19 -1
-19 -24 4 -13 14 -27 36 -31 50 l-7 25 31 -29 c17 -17 31 -39 31 -50z m231 43
c-5 -13 -18 -33 -30 -43 -20 -18 -21 -18 -21 -1 0 18 49 79 57 71 2 -2 -1 -14
-6 -27z m-177 -45 c16 -6 23 -44 9 -44 -14 0 -29 15 -36 33 -7 18 1 21 27 11z
m99 -11 c-7 -18 -22 -33 -35 -33 -13 0 -9 38 5 43 25 11 36 7 30 -10z"/>
</g>
</svg>
