<?xml version="1.0" standalone="no"?>
<!DOCTYPE svg PUBLIC "-//W3C//DTD SVG 20010904//EN"
 "http://www.w3.org/TR/2001/REC-SVG-20010904/DTD/svg10.dtd">
<svg version="1.0" xmlns="http://www.w3.org/2000/svg"
 width="736.000000pt" height="736.000000pt" viewBox="0 0 736.000000 736.000000"
 preserveAspectRatio="xMidYMid meet">

<g transform="translate(0.000000,736.000000) scale(0.100000,-0.100000)"
fill="currentColor" stroke="none">
<path d="M3430 7344 c-368 -30 -680 -97 -1010 -215 -47 -17 -98 -36 -115 -44
-16 -7 -46 -19 -65 -26 -65 -26 -334 -161 -419 -212 -166 -98 -400 -264 -524
-373 -322 -282 -573 -579 -769 -910 -64 -108 -171 -318 -217 -424 -13 -30 -29
-68 -36 -85 -32 -75 -90 -245 -124 -365 -12 -41 -26 -88 -31 -105 -18 -62 -70
-335 -87 -465 -25 -192 -25 -689 0 -880 31 -228 59 -364 118 -570 34 -122 92
-291 124 -365 7 -16 23 -55 36 -85 78 -185 236 -467 357 -641 406 -581 973
-1033 1637 -1304 17 -7 44 -18 60 -25 78 -32 312 -104 439 -134 338 -83 494
-100 876 -101 240 0 334 4 440 18 362 49 646 125 1004 270 67 27 332 161 410
207 174 103 402 265 529 376 409 357 717 760 932 1219 72 154 78 168 120 280
63 168 114 339 149 495 64 285 81 449 81 800 0 351 -17 515 -81 800 -39 173
-123 446 -179 575 -7 17 -19 46 -26 64 -32 79 -165 341 -224 440 -297 500
-746 955 -1240 1255 -88 54 -368 198 -455 235 -30 13 -68 29 -85 36 -131 56
-396 139 -570 178 -255 58 -444 78 -745 82 -146 1 -285 1 -310 -1z m655 -178
c434 -54 782 -156 1160 -341 943 -462 1638 -1339 1874 -2365 251 -1089 -29
-2222 -760 -3075 -94 -110 -337 -349 -439 -431 -463 -373 -976 -616 -1540
-728 -263 -52 -363 -61 -695 -61 -333 0 -464 13 -732 70 -677 146 -1285 482
-1774 981 -193 198 -346 392 -486 617 -66 106 -202 367 -233 447 -12 30 -27
69 -34 85 -88 205 -166 483 -210 755 -107 646 -19 1336 246 1950 408 939 1224
1668 2205 1966 219 67 453 113 673 133 63 6 131 13 150 15 75 9 481 -3 595
-18z"/>
<path d="M1594 5541 c-49 -12 -192 -85 -278 -142 -99 -66 -224 -184 -281 -263
-108 -152 -153 -288 -162 -491 -20 -464 175 -779 551 -887 190 -55 473 3 682
141 195 129 346 340 388 543 20 97 21 290 1 382 -54 253 -217 510 -390 615
-136 83 -384 132 -511 102z m241 -176 c109 -23 229 -87 300 -160 79 -82 149
-201 193 -327 35 -100 36 -108 37 -248 0 -124 -3 -155 -23 -216 -93 -290 -372
-504 -693 -530 -225 -19 -454 115 -557 326 -57 117 -75 205 -76 370 0 147 12
219 52 314 82 193 272 368 501 462 67 28 160 31 266 9z"/>
<path d="M1608 5191 c-80 -26 -134 -60 -201 -128 -199 -202 -255 -531 -131
-781 136 -276 452 -328 676 -109 175 170 248 449 179 689 -74 260 -298 401
-523 329z m257 -71 c73 -36 141 -108 180 -193 133 -287 11 -668 -255 -799 -57
-28 -75 -32 -145 -32 -129 0 -221 53 -293 167 -57 91 -73 147 -79 267 -6 120
5 191 43 287 59 149 161 259 290 313 69 28 189 24 259 -10z"/>
<path d="M5649 5365 c-260 -53 -418 -185 -554 -460 -82 -167 -100 -246 -100
-440 0 -124 4 -174 18 -220 72 -242 240 -447 462 -562 193 -100 414 -138 577
-99 281 67 464 250 546 544 25 90 27 111 27 292 -1 157 -4 208 -19 260 -75
271 -283 498 -594 648 -94 46 -100 47 -197 49 -55 1 -130 -4 -166 -12z m306
-185 c166 -75 359 -236 434 -363 126 -214 134 -546 18 -786 -46 -95 -158 -205
-257 -253 -146 -70 -263 -82 -420 -44 -183 45 -357 159 -465 305 -147 201
-176 468 -77 713 37 90 45 105 106 196 94 140 216 217 401 256 11 2 59 4 107
5 76 1 94 -3 153 -29z"/>
<path d="M5684 5031 c-130 -32 -245 -144 -300 -295 -88 -243 -29 -525 150
-714 52 -54 88 -82 144 -110 73 -36 80 -37 181 -37 97 0 111 3 166 29 290 143
356 605 131 921 -118 165 -304 246 -472 206z m254 -90 c95 -52 184 -148 232
-254 106 -233 76 -507 -71 -659 -68 -69 -142 -101 -240 -102 -68 -1 -83 3
-151 37 -226 111 -356 424 -289 690 33 125 88 215 169 271 66 46 108 57 202
53 74 -3 93 -7 148 -36z"/>
<path d="M774 3991 c-68 -29 -87 -135 -36 -193 25 -27 36 -31 77 -31 41 0 52
4 77 31 23 27 28 41 28 85 0 45 -4 57 -28 81 -31 29 -84 41 -118 27z"/>
<path d="M3365 3868 c-45 -24 -76 -65 -91 -116 -36 -121 35 -242 141 -242 95
0 166 103 149 216 -16 107 -124 184 -199 142z"/>
<path d="M4025 3866 c-76 -33 -116 -158 -81 -250 25 -66 65 -98 129 -104 50
-4 57 -2 92 29 48 43 65 83 65 156 -1 130 -103 214 -205 169z"/>
<path d="M6618 3724 c-56 -30 -73 -104 -38 -161 23 -38 52 -55 95 -55 65 0
105 48 105 123 0 33 -7 48 -34 75 -38 38 -81 44 -128 18z"/>
<path d="M659 3136 c-18 -38 -5 -80 69 -226 239 -474 609 -885 1077 -1196 243
-162 414 -249 596 -302 357 -106 658 -149 1202 -174 601 -28 1217 42 1517 173
594 257 1100 676 1436 1189 93 142 174 298 174 334 0 103 -75 58 -148 -90 -85
-171 -297 -452 -387 -514 -60 -42 -143 -62 -205 -50 -26 5 -90 31 -141 59
-108 57 -265 122 -383 157 -853 259 -2333 330 -3306 158 -294 -51 -538 -125
-702 -211 -45 -24 -65 -28 -133 -28 -87 0 -124 15 -194 79 -91 83 -255 333
-332 504 -64 145 -115 194 -140 138z m2615 -576 c45 -54 59 -119 64 -302 l4
-166 -34 -18 c-47 -26 -189 -26 -237 0 l-34 18 5 166 c4 122 10 180 23 217 35
102 102 157 156 129 15 -7 38 -27 53 -44z m329 30 c68 -59 101 -198 95 -400
l-3 -105 -40 -20 c-49 -23 -160 -26 -220 -4 l-40 14 0 180 c1 165 3 185 25
240 28 72 79 125 120 125 18 0 42 -11 63 -30z m390 0 c67 -59 97 -180 97 -395
l0 -113 -47 -19 c-57 -22 -160 -23 -218 -2 l-40 14 -3 145 c-3 162 8 240 44
313 26 50 73 87 111 87 12 0 38 -13 56 -30z m365 -23 c60 -56 84 -154 86 -352
l1 -140 -35 -16 c-52 -25 -115 -32 -173 -19 -96 23 -97 23 -97 158 1 202 33
321 102 376 39 31 78 29 116 -7z m-1478 -34 c18 -15 41 -47 51 -71 36 -83 51
-349 22 -377 -36 -37 -166 -44 -230 -13 l-28 13 1 140 c0 173 17 241 74 297
45 45 67 47 110 11z m1839 -31 c53 -55 63 -96 68 -275 l5 -157 -38 -17 c-50
-22 -148 -22 -196 0 l-38 16 0 125 c0 182 25 277 86 325 40 32 72 27 113 -17z
m-2155 -21 c33 -29 57 -91 66 -174 12 -98 13 -198 2 -214 -29 -46 -218 -43
-236 4 -9 23 2 239 15 286 19 74 78 133 119 119 8 -3 23 -12 34 -21z m2454
-16 c48 -40 64 -101 69 -257 l5 -138 -28 -11 c-38 -16 -152 -16 -188 -1 l-28
12 4 143 c5 157 22 215 73 255 36 28 57 28 93 -3z m-2757 -11 c52 -27 72 -88
77 -240 l5 -132 -38 -12 c-45 -15 -148 -8 -172 11 -13 12 -15 31 -10 129 7
139 19 184 62 227 38 38 37 38 76 17z m3033 -25 c46 -36 59 -82 64 -226 4
-120 3 -132 -14 -141 -35 -18 -100 -23 -147 -11 -59 14 -62 25 -53 166 11 186
72 273 150 212z m-3300 -30 c40 -31 56 -81 63 -195 l6 -102 -27 -17 c-32 -22
-117 -23 -149 -3 -21 15 -22 19 -16 129 6 121 20 165 61 193 29 20 30 20 62
-5z m3576 -29 c32 -34 50 -114 50 -222 0 -82 -11 -93 -95 -93 -88 0 -95 8 -95
115 0 98 18 171 51 206 30 32 55 30 89 -6z m-3584 -360 l27 -11 -5 -98 c-6
-113 -26 -164 -69 -169 -52 -6 -88 71 -89 189 0 69 2 77 23 87 29 14 79 15
113 2z m3592 -16 c21 -6 22 -11 22 -97 0 -71 -4 -100 -21 -133 -33 -68 -80
-68 -113 0 -20 43 -23 221 -3 229 17 8 88 8 115 1z m-3367 -14 c16 -9 19 -22
19 -97 0 -99 -14 -153 -46 -184 -58 -54 -110 18 -120 168 -7 87 -6 91 17 106
26 19 100 23 130 7z m1153 -9 l29 -12 -6 -137 c-6 -148 -21 -210 -62 -254 -35
-38 -62 -44 -94 -21 -64 48 -94 158 -89 322 l3 94 35 13 c40 15 141 13 184 -5z
m-919 -2 c22 -6 43 -15 46 -20 10 -17 10 -115 -1 -184 -22 -140 -85 -195 -144
-125 -36 43 -46 89 -46 212 l0 106 38 10 c50 14 61 14 107 1z m1197 1 c21 -6
41 -16 45 -23 10 -17 5 -240 -8 -295 -26 -118 -95 -169 -157 -117 -55 46 -75
119 -76 279 l-1 139 35 13 c43 16 113 17 162 4z m347 -9 c23 -13 23 -15 20
-159 -4 -137 -6 -151 -32 -205 -50 -101 -121 -111 -172 -23 -32 55 -47 149
-43 276 l3 105 35 13 c42 14 156 10 189 -7z m291 -5 c25 -11 25 -12 25 -151 0
-111 -4 -150 -18 -187 -47 -122 -134 -132 -187 -21 -20 41 -24 70 -29 192 -7
161 -5 166 57 176 20 4 42 8 47 10 15 5 77 -6 105 -19z m1084 9 l29 -6 -5
-108 c-5 -118 -22 -166 -66 -182 -35 -13 -76 32 -91 99 -15 70 -14 179 1 188
17 11 71 22 88 19 8 -2 28 -6 44 -10z m-2625 -6 c36 -13 34 -3 31 -149 -2
-129 -23 -206 -67 -240 -34 -26 -54 -25 -87 5 -47 44 -59 88 -64 236 l-4 137
28 10 c39 14 124 15 163 1z m326 -9 c15 -13 17 -29 12 -135 -5 -138 -24 -202
-69 -240 -39 -33 -53 -32 -93 8 -44 44 -56 89 -62 234 l-5 121 28 16 c37 21
163 18 189 -4z m1508 -9 l27 -11 0 -116 c0 -158 -20 -226 -80 -267 -32 -22
-34 -22 -74 14 -51 44 -67 110 -64 256 l3 116 35 13 c39 15 110 13 153 -5z
m297 1 l35 -17 0 -115 c-1 -70 -6 -134 -15 -164 -19 -61 -59 -106 -95 -106
-35 0 -80 45 -95 96 -11 35 -27 294 -19 294 2 0 22 7 44 15 53 19 102 18 145
-3z m276 -2 c15 -13 16 -29 11 -127 -6 -124 -22 -172 -69 -207 -24 -17 -31
-18 -53 -6 -47 25 -69 91 -73 221 l-4 117 28 11 c38 14 138 8 160 -9z"/>
</g>
</svg>
