<svg xmlns="http://www.w3.org/2000/svg" viewBox="0 0 32 32">
<g transform="translate(17,2) scale(0.8125)"><path fill="#000000" d="M6.002 5.5a1.5 1.5 0 1 1-3 0 1.5 1.5 0 0 1 3 0M2.002 1a2 2 0 0 0-2 2v10a2 2 0 0 0 2 2h12a2 2 0 0 0 2-2V3a2 2 0 0 0-2-2zm12 1a1 1 0 0 1 1 1v6.5l-3.777-1.947a.5.5 0 0 0-.577.093l-3.71 3.71-2.66-1.772a.5.5 0 0 0-.63.062L1.002 12V3a1 1 0 0 1 1-1z"/></g>
<g transform="translate(2,17) scale(0.8125)"><path fill="#000000" d="M6.002 5.5a1.5 1.5 0 1 1-3 0 1.5 1.5 0 0 1 3 0M2.002 1a2 2 0 0 0-2 2v10a2 2 0 0 0 2 2h12a2 2 0 0 0 2-2V3a2 2 0 0 0-2-2zm12 1a1 1 0 0 1 1 1v6.5l-3.777-1.947a.5.5 0 0 0-.577.093l-3.71 3.71-2.66-1.772a.5.5 0 0 0-.63.062L1.002 12V3a1 1 0 0 1 1-1z"/></g>
<polyline points="6.00,15.50 6.00,6.00 12.50,6.00" fill="none" stroke="#000000" stroke-width="1.8" stroke-linecap="round" stroke-linejoin="round"/>
  <polygon points="15.50,6.00 12.50,4.30 12.50,7.70" fill="#000000"/>
<polyline points="26.00,16.50 26.00,26.00 19.50,26.00" fill="none" stroke="#000000" stroke-width="1.8" stroke-linecap="round" stroke-linejoin="round"/>
  <polygon points="16.50,26.00 19.50,24.30 19.50,27.70" fill="#000000"/>
</svg>
